# xmcd CD database file
# Copyright (C) 1993-1998 Ti Kan
#
# Track frame offsets:
#  150
#  10718
#  25597
#  42792
#  63095
#  76939
#  88195
#  104921
#  119498
#  131939
#
# Disc length: 2125 seconds
#
# Revision: 1
# Processed by: cddbd v1.4b41PL1 Copyright (c) Steve Scherf et al.
# Submitted via: CDWizzard Release:4.32
#
DISCID=7d084b0a
DTITLE=Assorted - Club Sessions -- 100% Pure love rhythm of the night, Wh
DTITLE=at's up and more
DYEAR=1900
DGENRE=
TTITLE0=Scatman (Ski-ba-bop-ba-dop-bop)
TTITLE1=Mr. Vain
TTITLE2=What's Up
TTITLE3=Rhythm of the night
TTITLE4=I'm gonna get you
TTITLE5=Power of American Natives
TTITLE6=Without you
TTITLE7=Renaissance
TTITLE8=100% Pure Love
TTITLE9=Let the beat control your body
EXTD=
EXTT0=
EXTT1=
EXTT2=
EXTT3=
EXTT4=
EXTT5=
EXTT6=
EXTT7=
EXTT8=
EXTT9=
PLAYORDER=
